<svg version="1.1" id="Camada_1"
  xmlns="http://www.w3.org/2000/svg"
  xmlns:xlink="http://www.w3.org/1999/xlink" x="0px" y="0px" viewBox="0 0 232 115.5" style="enable-background:new 0 0 232 115.5;" xml:space="preserve">
  <style type="text/css">
	.st0{fill:#000001;}
	.st1{fill:#4249DD;}
	.st2{fill:#232673;}
	.st3{fill:#4249DB;}
	.st4{fill:#4149DB;}
	.st5{fill:#424AE3;}
	.st6{fill:#313386;}
	.st7{font-family:'Lato-Hairline';}
	.st8{font-size:30.09px;}
	.st9{fill:none;stroke:#313386;stroke-width:0.75;stroke-miterlimit:10;}
  </style>
  <title>svg sem fundo</title>
  <path class="st0" d="M163.1,8.9c-7.8-0.4-7.8-0.4-7.8,7.2v66h11.9V9.3C165.4,9.1,164.3,8.9,163.1,8.9z"/>
  <path class="st0" d="M115,30.7C99.7,30.6,89.5,41,89.5,56.8c0,16.3,9.9,26.5,25.6,26.5c15,0,24.6-10.3,24.6-26.3
	S130.1,30.9,115,30.7z M114.5,74.5c-18.7,0-18.7-35,0-35S133.2,74.5,114.5,74.5L114.5,74.5z"/>
  <path class="st1" d="M42,30.5l14.1,26.8c4.8-7.7,9-14.5,13.2-21.4c6-9.9,12-19.8,18.1-29.7c2.9-4.7,6.4-4.9,10-0.5
	c3.1,3.8,3.1,8-0.2,13.4c0,0-5.2,8.3-38.5,63.1c-1,1.7-2.1,3.5-2.1,3.5l-0.7,1.2c-0.8-1.1-2.1-3.1-3.6-5.7
	C49.7,77.3,44,66.5,30,40.6c-1.6-3-3-6-4.5-9c-0.4-0.2-0.6-0.6-0.6-1.1c0.2-0.6,0.8-0.9,1.4-0.7c0,0,0,0,0.1,0L42,30.5z"/>
  <path class="st2" d="M42.9,30.5H25c1.1,2.3,2.8,5.9,5,10.1c1.2,2.3,1.9,3.6,3.8,7.1c2.9,5.3,1.9,3.5,7,13c0,0,4.3,7.9,7.8,14.2
	c0.8,1.4,1,1.8,1.6,3c1.5,2.7,1.6,2.9,1.8,3.3c1.1,1.8,2.5,3.4,4.1,4.8c-3.1,8.1-14.3,8.5-18.6,0.5c-12-22.2-24.1-44.4-36.2-66.6
	c-0.6-1.2-1-2.4-1.5-3.6h61.4c-1.5,2.8-5.9,11.1-7.4,13.3c-0.1,0.2-0.3,0.4-0.5,0.5c-1.4,1.1-3.4,0-5.7-0.2
	C46.1,29.7,44.5,29.9,42.9,30.5z"/>
  <path class="st3" d="M115,30.7C99.7,30.6,89.5,41,89.5,56.8c0,16.3,9.9,26.5,25.6,26.5c15,0,24.6-10.3,24.6-26.3
	S130.1,30.9,115,30.7z M114.5,74.5c-18.7,0-18.7-35,0-35S133.2,74.5,114.5,74.5L114.5,74.5z"/>
  <path class="st4" d="M230.7,32.7c-4.4,6.3-8.6,12.6-13.1,18.7c-2.2,3-2.7,5.4-0.2,8.8c5,6.9,9.4,14.2,14.6,22.1
	c-4.5,0-8.3,0.4-12-0.2c-1.6-0.2-3.2-2-4.2-3.6c-3.2-4.8-6-9.8-9.4-15.3c-3,4.6-5.8,8.5-8,12.6c-1.6,3-3.5,5.2-6.1,6.2
	c-1,0.4-4,0.3-5.8,0.3h-1.6c-1.6,0-2.9,0-3.8-0.1c7-11,12.3-18.8,14.5-21.9s2.2-5.3,0-8.4c-4.5-6.2-8.7-12.8-13.1-19.3
	c8.7-3,12.8-1.5,17.2,5.5c2.2,3.5,4.5,6.9,7.2,11.1c2.7-4.1,5-7.6,7.3-11.1C218.7,31.2,221.4,30.2,230.7,32.7z"/>
  <path class="st5" d="M167.2,9.3v72.9h-11.9v-66c0-7.6,0-7.6,7.8-7.2C164.3,8.9,165.4,9.1,167.2,9.3z"/>
  <text transform="matrix(1 0 0 1 154.05 112.0584)" class="st6 st7 st8">I</text>
  <text transform="matrix(1 0 0 1 154.05 112.0584)" class="st9 st7 st8">I</text>
  <text transform="matrix(1 0 0 1 161.15 112.0584)" class="st6 st7 st8">n</text>
  <text transform="matrix(1 0 0 1 161.15 112.0584)" class="st9 st7 st8">n</text>
  <text transform="matrix(1 0 0 1 177.25 112.0584)" class="st6 st7 st8">v</text>
  <text transform="matrix(1 0 0 1 177.25 112.0584)" class="st9 st7 st8">v</text>
  <text transform="matrix(1 0 0 1 191.66 112.0584)" class="st6 st7 st8">est</text>
  <text transform="matrix(1 0 0 1 191.66 112.0584)" class="st9 st7 st8">est</text>
  <path class="st0" d="M171,93.9"/>
  <path class="st2" d="M52.4,35.3"/>
  <rect x="32.4" y="26.7" class="st2" width="19.8" height="3.8"/>
  <path class="st2" d="M48.7,28.9"/>
</svg>